<svg width="100" height="89" viewBox="0 0 100 89" fill="none" xmlns="http://www.w3.org/2000/svg">
<rect width="100" height="88.8889" fill="#5D5CD6"/>
<path d="M21.6675 74.8183H90.0992C92.4297 74.8183 94.318 76.7656 94.318 79.1684C94.318 81.5703 92.4297 83.5176 90.0992 83.5176H10.0666C5.68951 83.5176 3.37958 78.1737 6.30716 74.8183L54.9649 19.0259C56.3985 17.3827 58.7984 17.1084 60.5454 18.3889C62.6012 19.8949 62.9248 22.9107 61.2394 24.8436L20.3377 71.7421C19.3029 72.9287 20.12 74.8183 21.6675 74.8183Z" fill="#0DBA67"/>
<path d="M77.6502 12.7004H12.4184C10.0891 12.7004 8.19971 10.7532 8.19971 8.3503C8.19971 5.94744 10.0891 4.00021 12.4184 4.00021H89.2523C93.6283 4.00021 95.9382 9.34502 93.0106 12.7004L44.3529 68.4919C42.9193 70.136 40.5193 70.4094 38.7723 69.1288C36.7165 67.6238 36.3929 64.607 38.0783 62.6751L78.9801 15.7766C80.0148 14.5901 79.1978 12.7004 77.6502 12.7004Z" fill="#FFB800"/>
</svg>
