<svg width="16" height="16" viewBox="0 0 16 16" fill="none" xmlns="http://www.w3.org/2000/svg">
<rect width="16" height="16" fill="#5D5CD6"/>
<path d="M3.46661 13.4673H14.4157C14.7886 13.4673 15.0907 13.8178 15.0907 14.2504C15.0907 14.6827 14.7886 15.0332 14.4157 15.0332H1.61047C0.910126 15.0332 0.540538 14.0713 1.00895 13.4673L8.79419 3.42469C9.02356 3.12893 9.40755 3.07954 9.68707 3.31005C10.016 3.58112 10.0678 4.12397 9.79811 4.47188L3.25383 12.9136C3.08827 13.1272 3.219 13.4673 3.46661 13.4673Z" fill="#0DBA67"/>
<path d="M12.4241 2.28591H1.98701C1.61432 2.28591 1.31201 1.93541 1.31201 1.5029C1.31201 1.07038 1.61432 0.71988 1.98701 0.71988H14.2804C14.9806 0.71988 15.3502 1.68195 14.8818 2.28591L7.09652 12.3284C6.86714 12.6243 6.48315 12.6735 6.20363 12.443C5.8747 12.1721 5.82292 11.6291 6.09259 11.2814L12.6369 2.83964C12.8024 2.62606 12.6717 2.28591 12.4241 2.28591Z" fill="#FFB800"/>
</svg>
